<?xml version="1.0" encoding="UTF-8" ?>
<!DOCTYPE svg PUBLIC "-//W3C//DTD SVG 1.1//EN" "http://www.w3.org/Graphics/SVG/1.1/DTD/svg11.dtd">
<svg width="517pt" height="167pt" viewBox="0 0 517 167" version="1.1" xmlns="http://www.w3.org/2000/svg">
<g id="#2f80edff">
<path fill="#2f80ed" opacity="1.00" d=" M 80.28 0.00 L 85.35 0.00 C 100.43 0.76 115.34 5.51 127.84 14.05 C 145.58 25.96 158.33 45.05 162.41 66.04 C 165.02 80.05 164.61 94.74 160.56 108.44 C 154.82 127.84 141.59 144.86 124.24 155.25 C 112.57 162.37 99.09 166.26 85.48 167.00 L 78.62 167.00 C 59.67 166.12 41.09 158.63 27.08 145.81 C 10.86 131.31 1.04 110.16 0.00 88.46 L 0.00 78.65 C 1.02 55.92 11.78 33.81 29.30 19.25 C 43.43 7.25 61.75 0.39 80.28 0.00 M 90.79 29.34 C 91.36 29.41 92.49 29.54 93.05 29.60 C 99.00 34.55 99.56 42.92 99.84 50.09 C 95.24 50.61 90.61 50.89 86.01 51.45 C 83.65 51.87 80.49 51.02 79.20 53.66 C 92.77 53.97 106.37 53.77 119.95 53.76 C 119.79 46.61 117.05 39.28 111.54 34.54 C 105.81 29.69 98.33 27.15 90.84 27.07 C 90.82 27.83 90.80 28.58 90.79 29.34 M 43.51 36.79 C 46.12 39.08 49.47 40.72 51.15 43.89 C 52.45 46.73 52.37 49.95 52.38 53.01 C 52.32 77.33 52.39 101.66 52.34 125.99 C 52.11 129.15 52.15 132.62 50.30 135.34 C 48.13 137.68 44.54 137.61 42.13 139.65 C 51.42 140.23 60.74 139.75 70.04 139.90 C 75.65 139.72 81.33 140.36 86.90 139.46 C 83.92 137.76 80.21 137.70 77.49 135.51 C 75.12 133.40 74.32 130.08 74.28 127.01 C 74.16 118.85 74.39 110.68 74.16 102.51 C 81.54 104.65 89.35 103.83 96.89 103.24 C 105.36 101.33 113.15 96.12 117.86 88.78 C 120.00 85.37 122.49 81.70 121.95 77.46 C 119.05 80.06 116.63 83.35 112.97 84.96 C 107.41 87.86 100.98 87.65 94.91 87.28 C 87.28 85.94 80.71 80.15 78.07 72.91 C 75.43 65.61 74.75 57.62 75.87 49.95 C 76.50 44.13 77.61 38.04 81.23 33.27 C 83.10 30.88 86.64 30.31 87.85 27.33 C 83.07 27.63 78.49 29.14 74.23 31.25 C 74.24 30.15 74.25 27.94 74.25 26.84 C 63.89 29.73 53.64 33.13 43.51 36.79 Z" />
<path fill="#2f80ed" opacity="1.00" d=" M 305.27 0.00 L 310.50 0.00 C 314.53 1.47 317.30 6.11 315.41 10.24 C 313.13 16.17 303.73 16.63 300.90 10.93 C 298.53 6.80 301.08 1.68 305.27 0.00 Z" />
<path fill="#2f80ed" opacity="1.00" d=" M 374.28 0.00 L 379.49 0.00 C 383.51 1.47 386.30 6.09 384.41 10.23 C 382.13 16.19 372.68 16.63 369.88 10.89 C 367.54 6.76 370.09 1.67 374.28 0.00 Z" />
<path fill="#2f80ed" opacity="1.00" d=" M 248.84 0.78 C 250.72 3.32 251.86 6.64 254.74 8.29 C 258.60 10.53 263.62 10.51 267.59 8.59 C 270.86 7.07 272.18 3.51 274.17 0.77 C 274.23 5.00 273.50 9.45 270.95 12.94 C 266.77 19.12 256.27 19.07 252.08 12.93 C 249.56 9.44 248.82 5.00 248.84 0.78 Z" />
<path fill="#2f80ed" opacity="1.00" d=" M 332.84 20.95 C 336.77 17.50 340.44 13.74 344.64 10.61 C 345.23 15.05 344.95 19.54 345.00 24.00 C 350.27 24.00 355.55 24.00 360.83 24.00 C 360.44 25.86 360.06 27.71 359.69 29.57 C 354.79 29.56 349.89 29.56 345.00 29.56 C 345.01 38.39 344.98 47.22 345.00 56.05 C 344.99 59.12 345.55 62.76 348.42 64.50 C 352.66 66.87 357.70 65.44 362.21 64.78 C 356.90 72.23 346.68 75.98 337.92 73.06 C 333.34 71.55 331.07 66.60 331.07 62.05 C 330.89 51.24 331.05 40.42 331.00 29.60 C 328.81 29.57 326.63 29.53 324.45 29.39 C 326.65 26.04 329.94 23.66 332.84 20.95 Z" />
<path fill="#2f80ed" opacity="1.00" d=" M 200.45 28.41 C 204.03 25.37 208.56 23.75 213.15 23.02 C 210.12 25.38 207.12 28.13 206.34 32.08 C 204.36 40.56 203.90 50.48 209.12 57.94 C 213.06 63.57 220.82 64.76 227.05 62.84 C 230.71 61.94 233.31 59.05 236.13 56.76 C 234.19 63.38 229.60 69.36 223.19 72.13 C 214.12 75.99 202.31 73.75 196.23 65.69 C 187.92 54.70 189.61 37.16 200.45 28.41 Z" />
<path fill="#2f80ed" opacity="1.00" d=" M 214.66 22.83 C 220.21 23.13 226.03 24.83 229.78 29.17 C 232.66 32.23 233.77 36.42 234.20 40.49 C 225.40 40.32 216.56 40.90 207.78 40.16 C 212.18 38.91 216.79 38.90 221.30 38.32 C 220.91 32.63 220.17 25.96 214.66 22.83 Z" />
<path fill="#2f80ed" opacity="1.00" d=" M 245.30 29.44 C 249.22 25.25 254.94 23.48 260.48 22.80 C 256.71 25.26 254.54 29.37 254.33 33.84 C 253.79 39.51 253.71 45.50 255.85 50.87 C 256.86 53.76 259.65 55.23 261.97 56.93 C 255.77 56.40 249.19 54.80 244.79 50.10 C 239.38 44.54 239.98 34.84 245.30 29.44 Z" />
<path fill="#2f80ed" opacity="1.00" d=" M 262.17 22.84 C 268.16 23.26 274.51 24.78 278.87 29.19 C 284.28 34.47 284.25 43.87 279.45 49.53 C 275.62 54.21 269.53 56.06 263.77 56.91 C 271.25 51.55 270.34 41.22 269.40 33.18 C 268.99 28.64 266.05 25.00 262.17 22.84 Z" />
<path fill="#2f80ed" opacity="1.00" d=" M 280.38 27.25 C 284.63 25.40 289.04 23.94 293.39 22.31 C 292.98 25.63 292.57 28.94 292.16 32.26 C 288.21 30.63 284.18 29.20 280.38 27.25 Z" />
<path fill="#2f80ed" opacity="1.00" d=" M 294.95 29.22 C 301.75 27.15 308.52 25.00 315.32 22.90 C 314.89 36.27 315.00 49.65 315.00 63.02 C 315.10 65.46 315.14 68.23 316.88 70.15 C 318.56 71.47 320.66 72.04 322.55 72.99 C 312.98 73.01 303.42 73.01 293.85 72.99 C 296.58 71.71 300.59 70.80 300.70 67.09 C 301.34 57.37 300.88 47.60 300.96 37.87 C 301.34 33.79 297.85 31.31 294.95 29.22 Z" />
<path fill="#2f80ed" opacity="1.00" d=" M 363.95 29.22 C 370.75 27.15 377.52 25.00 384.32 22.90 C 383.89 36.26 384.00 49.63 384.00 63.00 C 384.10 65.42 384.13 68.16 385.83 70.10 C 387.50 71.48 389.67 72.03 391.58 72.99 C 381.99 73.01 372.40 73.01 362.81 72.99 C 365.51 71.72 369.53 70.87 369.69 67.19 C 370.36 57.46 369.87 47.67 369.96 37.92 C 370.37 33.82 366.87 31.32 363.95 29.22 Z" />
<path fill="#2f80ed" opacity="1.00" d=" M 395.32 29.09 C 401.88 27.00 408.42 24.84 415.00 22.78 C 415.00 36.20 415.00 49.62 414.99 63.03 C 415.11 65.49 414.95 68.34 416.72 70.29 C 418.25 71.45 420.09 72.08 421.77 72.99 C 412.46 73.01 403.15 73.01 393.84 72.99 C 396.25 71.69 399.97 71.19 400.52 67.95 C 401.42 63.01 400.84 57.95 401.00 52.95 C 400.89 47.28 401.24 41.60 400.83 35.94 C 400.52 32.75 397.51 30.99 395.32 29.09 Z" />
<path fill="#2f80ed" opacity="1.00" d=" M 431.21 23.25 C 435.19 22.57 439.93 22.96 442.83 26.11 C 445.50 29.05 445.86 33.24 445.98 37.03 C 446.06 46.04 445.95 55.05 446.00 64.07 C 446.13 66.23 446.00 68.71 447.52 70.45 C 449.08 71.56 450.94 72.13 452.64 72.99 C 443.50 73.01 434.36 73.01 425.21 72.99 C 427.79 71.67 431.49 70.67 431.69 67.18 C 432.39 58.82 431.80 50.39 432.02 42.00 C 431.89 38.72 432.36 34.64 429.54 32.30 C 425.91 29.89 421.33 31.30 417.43 32.12 C 421.02 27.91 425.63 24.26 431.21 23.25 Z" />
<path fill="#2f80ed" opacity="1.00" d=" M 448.34 32.12 C 453.31 25.92 461.51 21.25 469.62 23.54 C 474.31 24.69 476.62 29.62 476.81 34.09 C 477.26 44.06 476.84 54.05 477.02 64.03 C 477.17 66.17 477.15 68.63 478.69 70.32 C 480.30 71.51 482.25 72.09 484.03 72.99 C 474.70 73.01 465.38 73.01 456.05 72.99 C 458.71 71.69 462.51 70.68 462.70 67.11 C 463.38 58.77 462.80 50.37 463.02 42.01 C 462.90 38.72 463.33 34.65 460.51 32.31 C 456.86 29.90 452.26 31.30 448.34 32.12 Z" />
<path fill="#2f80ed" opacity="1.00" d=" M 240.77 64.76 C 242.79 60.97 246.14 58.15 249.40 55.46 C 248.89 57.26 247.92 59.02 248.07 60.94 C 248.42 63.19 250.98 63.91 252.94 63.85 C 261.00 63.79 269.05 62.60 277.11 63.18 C 281.06 63.48 285.43 64.89 287.46 68.57 C 289.75 72.99 289.44 78.62 286.87 82.86 C 284.09 87.49 279.74 91.01 274.95 93.41 C 277.78 90.25 281.85 86.94 280.89 82.15 C 280.58 79.33 277.61 78.02 275.09 77.98 C 267.06 77.71 259.04 78.78 251.01 78.72 C 247.72 78.67 244.29 77.53 242.05 75.03 C 239.57 72.31 239.01 68.01 240.77 64.76 Z" />
<path fill="#2f80ed" opacity="1.00" d=" M 237.97 88.11 C 240.84 83.84 245.80 81.70 250.52 80.14 C 249.10 82.23 247.17 84.24 247.05 86.91 C 246.58 90.55 248.07 94.87 251.86 96.07 C 258.88 98.29 266.21 96.05 272.98 94.00 C 267.90 97.92 261.32 99.31 255.07 99.91 C 249.97 100.14 244.39 99.92 240.07 96.87 C 237.33 95.02 235.96 90.97 237.97 88.11 Z" />
<path fill="#2f80ed" opacity="1.00" d=" M 470.20 92.26 C 474.40 90.73 479.40 95.33 477.69 99.62 C 476.32 104.22 469.40 105.20 466.84 101.13 C 464.27 98.03 466.49 93.12 470.20 92.26 Z" />
<path fill="#2f80ed" opacity="1.00" d=" M 310.07 115.12 C 314.93 109.96 320.29 105.25 325.83 100.84 C 326.05 104.22 326.01 107.61 326.00 111.00 C 330.02 111.00 334.04 111.00 338.06 111.00 C 337.77 112.42 337.49 113.84 337.22 115.27 C 333.48 115.27 329.74 115.27 326.00 115.26 C 326.04 122.20 325.93 129.14 326.03 136.07 C 325.99 138.40 326.82 141.06 329.14 142.06 C 332.36 143.47 335.95 142.37 339.30 142.18 C 334.77 147.32 327.43 150.62 320.66 148.25 C 317.14 147.21 315.38 143.46 315.33 140.02 C 315.17 131.79 315.31 123.56 315.28 115.33 C 313.54 115.27 311.80 115.20 310.07 115.12 Z" />
<path fill="#2f80ed" opacity="1.00" d=" M 188.84 114.65 C 193.80 113.06 198.76 111.42 203.75 109.91 C 204.00 120.27 203.15 130.71 204.19 141.02 C 204.63 145.91 209.64 147.61 213.55 149.04 C 210.26 149.06 206.98 148.85 203.72 148.43 C 203.93 153.24 203.21 158.14 204.22 162.88 C 205.00 165.62 208.24 166.01 210.45 167.00 L 187.34 167.00 C 188.98 166.19 191.00 165.77 192.22 164.29 C 193.27 162.01 192.95 159.41 193.03 156.97 C 192.91 144.95 193.11 132.91 192.95 120.89 C 193.17 118.04 190.58 116.43 188.84 114.65 Z" />
<path fill="#2f80ed" opacity="1.00" d=" M 204.93 115.71 C 208.88 112.41 213.75 109.39 219.14 110.09 C 224.06 110.40 228.82 113.39 230.61 118.08 C 233.52 125.64 232.78 135.06 227.29 141.30 C 224.11 144.93 219.55 146.90 215.01 148.26 C 220.55 142.73 221.45 134.35 220.85 126.92 C 220.44 122.58 218.76 117.48 214.34 115.74 C 211.32 114.42 208.03 115.24 204.93 115.71 Z" />
<path fill="#2f80ed" opacity="1.00" d=" M 245.10 113.60 C 249.87 111.25 255.24 108.87 260.64 110.54 C 264.46 111.30 267.25 114.78 267.50 118.62 C 268.13 126.34 267.38 134.12 267.86 141.85 C 268.17 144.86 271.83 143.74 273.82 143.90 C 270.69 149.84 259.75 151.32 257.58 143.96 C 256.05 135.78 257.83 127.30 256.64 119.09 C 254.89 114.49 249.21 114.28 245.10 113.60 Z" />
<path fill="#2f80ed" opacity="1.00" d=" M 275.96 114.63 C 280.98 113.08 285.97 111.42 291.00 109.90 C 290.99 119.61 291.02 129.31 290.98 139.02 C 291.02 141.02 290.93 143.17 291.97 144.96 C 293.30 146.67 295.58 147.07 297.42 148.00 C 289.81 148.00 282.21 148.00 274.60 148.00 C 276.93 146.95 280.29 146.12 280.14 142.90 C 280.39 135.28 280.32 127.64 280.18 120.02 C 280.23 117.39 277.68 116.12 275.96 114.63 Z" />
<path fill="#2f80ed" opacity="1.00" d=" M 292.58 116.76 C 294.79 113.12 298.31 108.95 303.11 110.19 C 308.07 110.85 309.59 117.94 306.05 121.08 C 303.57 123.37 298.76 122.99 297.23 119.78 C 296.20 117.74 297.35 115.56 297.64 113.49 C 295.82 114.36 294.14 115.49 292.58 116.76 Z" />
<path fill="#2f80ed" opacity="1.00" d=" M 340.98 114.62 C 345.99 113.08 350.98 111.45 356.00 109.91 C 356.00 119.95 356.01 129.98 355.98 140.02 C 356.06 141.96 355.88 144.21 357.23 145.80 C 358.49 146.71 359.95 147.28 361.33 148.01 C 354.09 147.97 346.84 148.06 339.60 147.96 C 341.88 146.96 345.23 146.18 345.13 143.01 C 345.44 135.67 345.23 128.31 345.25 120.97 C 345.49 118.04 343.02 116.21 340.98 114.62 Z" />
<path fill="#2f80ed" opacity="1.00" d=" M 357.85 116.82 C 360.94 113.86 364.38 110.80 368.81 110.26 C 373.64 109.02 379.62 111.79 380.30 117.08 C 381.48 125.99 380.04 135.07 381.06 143.99 C 381.44 146.59 384.49 146.91 386.36 148.00 C 379.13 148.01 371.90 148.00 364.68 148.00 C 366.05 147.27 367.52 146.70 368.80 145.78 C 370.11 144.16 369.93 141.91 370.02 139.96 C 369.98 134.29 370.02 128.63 370.00 122.96 C 369.97 120.87 369.79 118.34 367.88 117.07 C 364.84 115.13 361.12 116.37 357.85 116.82 Z" />
<path fill="#2f80ed" opacity="1.00" d=" M 396.17 114.16 C 398.98 111.75 402.59 110.72 406.09 109.79 C 399.68 113.83 399.14 122.17 399.99 128.97 C 400.49 134.75 404.64 140.81 410.90 141.00 C 415.82 141.71 420.32 139.20 423.59 135.74 C 422.30 139.36 420.47 142.99 417.33 145.36 C 410.36 151.09 398.82 150.00 393.25 142.82 C 386.71 134.47 387.78 120.89 396.17 114.16 Z" />
<path fill="#2f80ed" opacity="1.00" d=" M 407.37 109.74 C 411.15 110.37 415.23 111.14 418.07 113.95 C 420.67 116.23 421.66 119.69 422.21 122.98 C 415.37 122.84 408.47 123.44 401.67 122.50 C 405.23 122.00 408.85 121.90 412.43 121.47 C 412.04 117.14 411.29 112.35 407.37 109.74 Z" />
<path fill="#2f80ed" opacity="1.00" d=" M 427.00 114.61 C 432.01 113.08 436.98 111.42 442.00 109.90 C 442.01 119.95 441.99 130.01 441.99 140.06 C 442.05 141.91 442.07 144.05 443.42 145.50 C 444.85 146.70 446.72 147.20 448.39 148.00 C 440.81 147.99 433.23 148.02 425.65 147.99 C 427.89 146.95 431.21 146.16 431.13 143.03 C 431.40 135.36 431.31 127.65 431.18 119.98 C 431.20 117.38 428.68 116.12 427.00 114.61 Z" />
<path fill="#2f80ed" opacity="1.00" d=" M 443.57 116.77 C 445.70 113.43 448.62 109.55 453.10 110.01 C 457.30 110.02 460.10 114.72 458.63 118.53 C 457.62 122.84 451.12 123.97 448.58 120.42 C 447.04 118.31 448.27 115.76 448.64 113.49 C 446.81 114.36 445.14 115.49 443.57 116.77 Z" />
<path fill="#2f80ed" opacity="1.00" d=" M 461.79 114.74 C 466.96 113.10 472.14 111.54 477.32 109.96 C 476.75 120.70 477.00 131.47 477.09 142.21 C 476.86 145.67 480.23 146.97 482.87 148.00 C 475.45 147.99 468.03 148.03 460.61 147.98 C 462.88 146.96 466.21 146.17 466.13 143.02 C 466.44 135.69 466.23 128.33 466.24 121.00 C 466.46 118.04 463.79 116.34 461.79 114.74 Z" />
<path fill="#2f80ed" opacity="1.00" d=" M 243.22 116.20 C 246.70 114.90 250.42 119.21 248.52 122.45 C 247.24 125.47 242.64 125.86 240.85 123.13 C 239.03 120.78 240.31 116.93 243.22 116.20 Z" />
<path fill="#2f80ed" opacity="1.00" d=" M 240.46 132.63 C 245.29 130.81 250.34 129.59 255.37 128.46 C 252.83 130.16 249.07 130.83 248.04 134.08 C 247.09 136.78 247.17 140.00 248.64 142.51 C 250.41 144.70 253.58 143.64 255.96 143.66 C 252.92 147.41 248.01 150.14 243.11 148.51 C 236.22 146.93 234.89 136.45 240.46 132.63 Z" />
</g>
</svg>
